<mxfile host="Electron" agent="Mozilla/5.0 (Windows NT 10.0; Win64; x64) AppleWebKit/537.36 (KHTML, like Gecko) draw.io/24.7.8 Chrome/128.0.6613.36 Electron/32.0.1 Safari/537.36" version="24.7.8">
  <diagram name="Seite-1" id="kkWLzfonhwwqtWxVUZTo">
    <mxGraphModel dx="1947" dy="1196" grid="1" gridSize="10" guides="1" tooltips="1" connect="1" arrows="1" fold="1" page="1" pageScale="1" pageWidth="1169" pageHeight="827" math="0" shadow="0">
      <root>
        <mxCell id="0" />
        <mxCell id="1" parent="0" />
        <mxCell id="PTXuDaeuRBFtzR8HTNFe-1" value="Home Network" style="fillColor=none;strokeColor=#5A6C86;dashed=1;verticalAlign=top;fontStyle=0;fontColor=#5A6C86;whiteSpace=wrap;html=1;" vertex="1" parent="1">
          <mxGeometry x="40" y="40" width="280" height="440" as="geometry" />
        </mxCell>
        <mxCell id="PTXuDaeuRBFtzR8HTNFe-2" value="AWS Cloud" style="points=[[0,0],[0.25,0],[0.5,0],[0.75,0],[1,0],[1,0.25],[1,0.5],[1,0.75],[1,1],[0.75,1],[0.5,1],[0.25,1],[0,1],[0,0.75],[0,0.5],[0,0.25]];outlineConnect=0;gradientColor=none;html=1;whiteSpace=wrap;fontSize=12;fontStyle=0;container=1;pointerEvents=0;collapsible=0;recursiveResize=0;shape=mxgraph.aws4.group;grIcon=mxgraph.aws4.group_aws_cloud;strokeColor=#232F3E;fillColor=none;verticalAlign=top;align=left;spacingLeft=30;fontColor=#232F3E;dashed=0;" vertex="1" parent="1">
          <mxGeometry x="400" y="40" width="720" height="440" as="geometry" />
        </mxCell>
        <mxCell id="PTXuDaeuRBFtzR8HTNFe-11" value="Solar Services" style="fillColor=#dae8fc;strokeColor=#6c8ebf;verticalAlign=top;fontStyle=0;whiteSpace=wrap;html=1;" vertex="1" parent="PTXuDaeuRBFtzR8HTNFe-2">
          <mxGeometry x="40" y="40" width="660" height="180" as="geometry" />
        </mxCell>
        <mxCell id="PTXuDaeuRBFtzR8HTNFe-16" value="" style="edgeStyle=orthogonalEdgeStyle;rounded=0;orthogonalLoop=1;jettySize=auto;html=1;" edge="1" parent="PTXuDaeuRBFtzR8HTNFe-2" source="PTXuDaeuRBFtzR8HTNFe-12" target="PTXuDaeuRBFtzR8HTNFe-13">
          <mxGeometry relative="1" as="geometry" />
        </mxCell>
        <mxCell id="PTXuDaeuRBFtzR8HTNFe-12" value="mosquitto" style="sketch=0;points=[[0,0,0],[0.25,0,0],[0.5,0,0],[0.75,0,0],[1,0,0],[0,1,0],[0.25,1,0],[0.5,1,0],[0.75,1,0],[1,1,0],[0,0.25,0],[0,0.5,0],[0,0.75,0],[1,0.25,0],[1,0.5,0],[1,0.75,0]];outlineConnect=0;fontColor=#232F3E;fillColor=#ED7100;strokeColor=#ffffff;dashed=0;verticalLabelPosition=bottom;verticalAlign=top;align=center;html=1;fontSize=12;fontStyle=0;aspect=fixed;shape=mxgraph.aws4.resourceIcon;resIcon=mxgraph.aws4.ec2;" vertex="1" parent="PTXuDaeuRBFtzR8HTNFe-2">
          <mxGeometry x="100" y="90" width="80" height="80" as="geometry" />
        </mxCell>
        <mxCell id="PTXuDaeuRBFtzR8HTNFe-17" value="" style="edgeStyle=orthogonalEdgeStyle;rounded=0;orthogonalLoop=1;jettySize=auto;html=1;" edge="1" parent="PTXuDaeuRBFtzR8HTNFe-2" source="PTXuDaeuRBFtzR8HTNFe-13" target="PTXuDaeuRBFtzR8HTNFe-15">
          <mxGeometry relative="1" as="geometry" />
        </mxCell>
        <mxCell id="PTXuDaeuRBFtzR8HTNFe-13" value="telegraf" style="sketch=0;points=[[0,0,0],[0.25,0,0],[0.5,0,0],[0.75,0,0],[1,0,0],[0,1,0],[0.25,1,0],[0.5,1,0],[0.75,1,0],[1,1,0],[0,0.25,0],[0,0.5,0],[0,0.75,0],[1,0.25,0],[1,0.5,0],[1,0.75,0]];outlineConnect=0;fontColor=#232F3E;fillColor=#ED7100;strokeColor=#ffffff;dashed=0;verticalLabelPosition=bottom;verticalAlign=top;align=center;html=1;fontSize=12;fontStyle=0;aspect=fixed;shape=mxgraph.aws4.resourceIcon;resIcon=mxgraph.aws4.ec2;" vertex="1" parent="PTXuDaeuRBFtzR8HTNFe-2">
          <mxGeometry x="253" y="90" width="80" height="80" as="geometry" />
        </mxCell>
        <mxCell id="PTXuDaeuRBFtzR8HTNFe-14" value="grafana" style="sketch=0;points=[[0,0,0],[0.25,0,0],[0.5,0,0],[0.75,0,0],[1,0,0],[0,1,0],[0.25,1,0],[0.5,1,0],[0.75,1,0],[1,1,0],[0,0.25,0],[0,0.5,0],[0,0.75,0],[1,0.25,0],[1,0.5,0],[1,0.75,0]];outlineConnect=0;fontColor=#232F3E;fillColor=#ED7100;strokeColor=#ffffff;dashed=0;verticalLabelPosition=bottom;verticalAlign=top;align=center;html=1;fontSize=12;fontStyle=0;aspect=fixed;shape=mxgraph.aws4.resourceIcon;resIcon=mxgraph.aws4.ec2;" vertex="1" parent="PTXuDaeuRBFtzR8HTNFe-2">
          <mxGeometry x="560" y="90" width="80" height="80" as="geometry" />
        </mxCell>
        <mxCell id="PTXuDaeuRBFtzR8HTNFe-18" value="" style="edgeStyle=orthogonalEdgeStyle;rounded=0;orthogonalLoop=1;jettySize=auto;html=1;" edge="1" parent="PTXuDaeuRBFtzR8HTNFe-2" source="PTXuDaeuRBFtzR8HTNFe-15" target="PTXuDaeuRBFtzR8HTNFe-14">
          <mxGeometry relative="1" as="geometry" />
        </mxCell>
        <mxCell id="PTXuDaeuRBFtzR8HTNFe-15" value="influxdb" style="sketch=0;points=[[0,0,0],[0.25,0,0],[0.5,0,0],[0.75,0,0],[1,0,0],[0,1,0],[0.25,1,0],[0.5,1,0],[0.75,1,0],[1,1,0],[0,0.25,0],[0,0.5,0],[0,0.75,0],[1,0.25,0],[1,0.5,0],[1,0.75,0]];outlineConnect=0;fontColor=#232F3E;fillColor=#ED7100;strokeColor=#ffffff;dashed=0;verticalLabelPosition=bottom;verticalAlign=top;align=center;html=1;fontSize=12;fontStyle=0;aspect=fixed;shape=mxgraph.aws4.resourceIcon;resIcon=mxgraph.aws4.ec2;" vertex="1" parent="PTXuDaeuRBFtzR8HTNFe-2">
          <mxGeometry x="407" y="90" width="80" height="80" as="geometry" />
        </mxCell>
        <mxCell id="PTXuDaeuRBFtzR8HTNFe-26" value="" style="sketch=0;outlineConnect=0;fontColor=#232F3E;gradientColor=none;fillColor=#ED7100;strokeColor=none;dashed=0;verticalLabelPosition=bottom;verticalAlign=top;align=center;html=1;fontSize=12;fontStyle=0;aspect=fixed;pointerEvents=1;shape=mxgraph.aws4.lambda_function;" vertex="1" parent="PTXuDaeuRBFtzR8HTNFe-2">
          <mxGeometry x="40" y="172" width="48" height="48" as="geometry" />
        </mxCell>
        <mxCell id="PTXuDaeuRBFtzR8HTNFe-4" value="OpenDTU" style="verticalLabelPosition=bottom;html=1;verticalAlign=top;strokeWidth=1;align=center;outlineConnect=0;dashed=0;outlineConnect=0;shape=mxgraph.aws3d.dataServer;strokeColor=#5E5E5E;aspect=fixed;" vertex="1" parent="1">
          <mxGeometry x="150" y="190" width="71.95" height="62" as="geometry" />
        </mxCell>
        <mxCell id="PTXuDaeuRBFtzR8HTNFe-6" value="" style="verticalLabelPosition=bottom;verticalAlign=top;html=1;shape=mxgraph.basic.sun;fillColor=#fff2cc;strokeColor=#d6b656;" vertex="1" parent="1">
          <mxGeometry x="70" y="70" width="100" height="100" as="geometry" />
        </mxCell>
        <mxCell id="PTXuDaeuRBFtzR8HTNFe-7" value="" style="endArrow=classic;html=1;rounded=0;exitX=0.855;exitY=0.855;exitDx=0;exitDy=0;exitPerimeter=0;" edge="1" parent="1" source="PTXuDaeuRBFtzR8HTNFe-6" target="PTXuDaeuRBFtzR8HTNFe-4">
          <mxGeometry width="50" height="50" relative="1" as="geometry">
            <mxPoint x="541.5" y="460" as="sourcePoint" />
            <mxPoint x="591.5" y="410" as="targetPoint" />
          </mxGeometry>
        </mxCell>
        <mxCell id="PTXuDaeuRBFtzR8HTNFe-10" value="RaspberryPI" style="verticalLabelPosition=bottom;html=1;verticalAlign=top;strokeWidth=1;align=center;outlineConnect=0;dashed=0;outlineConnect=0;shape=mxgraph.aws3d.dataServer;strokeColor=#5E5E5E;aspect=fixed;" vertex="1" parent="1">
          <mxGeometry x="152.32" y="290" width="69.63" height="60" as="geometry" />
        </mxCell>
        <mxCell id="PTXuDaeuRBFtzR8HTNFe-20" value="" style="endArrow=classic;html=1;rounded=0;edgeStyle=orthogonalEdgeStyle;" edge="1" parent="1" source="PTXuDaeuRBFtzR8HTNFe-10" target="PTXuDaeuRBFtzR8HTNFe-26">
          <mxGeometry width="50" height="50" relative="1" as="geometry">
            <mxPoint x="500" y="530" as="sourcePoint" />
            <mxPoint x="455.8770800000002" y="257.6400000000001" as="targetPoint" />
          </mxGeometry>
        </mxCell>
        <mxCell id="PTXuDaeuRBFtzR8HTNFe-21" value="" style="endArrow=classic;html=1;rounded=0;entryX=0;entryY=0.5;entryDx=0;entryDy=0;entryPerimeter=0;edgeStyle=orthogonalEdgeStyle;" edge="1" parent="1" source="PTXuDaeuRBFtzR8HTNFe-4" target="PTXuDaeuRBFtzR8HTNFe-12">
          <mxGeometry width="50" height="50" relative="1" as="geometry">
            <mxPoint x="500" y="530" as="sourcePoint" />
            <mxPoint x="550" y="480" as="targetPoint" />
          </mxGeometry>
        </mxCell>
        <mxCell id="PTXuDaeuRBFtzR8HTNFe-23" value="Grafana Dashboard" style="sketch=0;outlineConnect=0;fontColor=#232F3E;gradientColor=none;fillColor=#8C4FFF;strokeColor=none;dashed=0;verticalLabelPosition=bottom;verticalAlign=top;align=center;html=1;fontSize=12;fontStyle=0;aspect=fixed;pointerEvents=1;shape=mxgraph.aws4.opensearch_dashboards;" vertex="1" parent="1">
          <mxGeometry x="150" y="384" width="78" height="59" as="geometry" />
        </mxCell>
        <mxCell id="PTXuDaeuRBFtzR8HTNFe-24" value="" style="endArrow=classic;html=1;rounded=0;exitX=0.5;exitY=1;exitDx=0;exitDy=0;exitPerimeter=0;edgeStyle=orthogonalEdgeStyle;" edge="1" parent="1" source="PTXuDaeuRBFtzR8HTNFe-14" target="PTXuDaeuRBFtzR8HTNFe-23">
          <mxGeometry width="50" height="50" relative="1" as="geometry">
            <mxPoint x="500" y="530" as="sourcePoint" />
            <mxPoint x="550" y="480" as="targetPoint" />
            <Array as="points">
              <mxPoint x="1000" y="420" />
            </Array>
          </mxGeometry>
        </mxCell>
      </root>
    </mxGraphModel>
  </diagram>
</mxfile>
